HIERARCHY
ROOT RootJoint
{
    OFFSET   0.000000   0.000000   0.000000
    CHANNELS 6 Xposition Yposition Zposition Xrotation Yrotation Zrotation
    JOINT pelvis_lowerback
    {
        OFFSET   0.000000   0.093605   0.000000
        CHANNELS 3 Xrotation Yrotation Zrotation
        JOINT lowerback_torso
        {
            OFFSET   0.000000   0.100000   0.000000
            CHANNELS 3 Xrotation Yrotation Zrotation
            JOINT torso_head
            {
                OFFSET   0.000000   0.282350   0.000000
                CHANNELS 3 Xrotation Yrotation Zrotation
                End Site
                {
                    OFFSET   0.000000   0.192650   0.000000
                }
            }
            JOINT rTorso_Clavicle
            {
                OFFSET  -0.001000   0.157500   0.000000
                CHANNELS 3 Xrotation Yrotation Zrotation
                JOINT rShoulder
                {
                    OFFSET  -0.117647   0.000000   0.000000
                    CHANNELS 3 Xrotation Yrotation Zrotation
                    JOINT rElbow
                    {
                        OFFSET  -0.245000   0.000000   0.000000
                        CHANNELS 3 Xrotation Yrotation Zrotation
                        JOINT rWrist
                        {
                            OFFSET  -0.240000   0.000000   0.000000
                            CHANNELS 3 Xrotation Yrotation Zrotation
                            End Site
                            {
                                OFFSET  -0.116353  -0.002500   0.000000
                            }
                        }
                    }
                }
            }
            JOINT lTorso_Clavicle
            {
                OFFSET   0.001000   0.157500   0.000000
                CHANNELS 3 Xrotation Yrotation Zrotation
                JOINT lShoulder
                {
                    OFFSET   0.117647   0.000000   0.000000
                    CHANNELS 3 Xrotation Yrotation Zrotation
                    JOINT lElbow
                    {
                        OFFSET   0.245000   0.000000   0.000000
                        CHANNELS 3 Xrotation Yrotation Zrotation
                        JOINT lWrist
                        {
                            OFFSET   0.240000   0.000000   0.000000
                            CHANNELS 3 Xrotation Yrotation Zrotation
                            End Site
                            {
                                OFFSET   0.116353  -0.002500   0.000000
                            }
                        }
                    }
                }
            }
        }
    }
    JOINT rHip
    {
        OFFSET  -0.100000  -0.051395   0.000000
        CHANNELS 3 Xrotation Yrotation Zrotation
        JOINT rKnee
        {
            OFFSET   0.000000  -0.410000   0.000000
            CHANNELS 3 Xrotation Yrotation Zrotation
            JOINT rAnkle
            {
                OFFSET   0.000000  -0.390000   0.000000
                CHANNELS 3 Xrotation Yrotation Zrotation
                JOINT rToeJoint
                {
                    OFFSET   0.000000  -0.050000   0.130000
                    CHANNELS 3 Xrotation Yrotation Zrotation
                    End Site
                    {
                        OFFSET  -0.010000   0.002000   0.060000
                    }
                }
            }
        }
    }
    JOINT lHip
    {
        OFFSET   0.100000  -0.051395   0.000000
        CHANNELS 3 Xrotation Yrotation Zrotation
        JOINT lKnee
        {
            OFFSET   0.000000  -0.410000   0.000000
            CHANNELS 3 Xrotation Yrotation Zrotation
            JOINT lAnkle
            {
                OFFSET   0.000000  -0.390000   0.000000
                CHANNELS 3 Xrotation Yrotation Zrotation
                JOINT lToeJoint
                {
                    OFFSET   0.000000  -0.050000   0.130000
                    CHANNELS 3 Xrotation Yrotation Zrotation
                    End Site
                    {
                        OFFSET   0.010000   0.002000   0.060000
                    }
                }
            }
        }
    }
}
MOTION
Frames: 14
Frame Time:   0.008333
 -2.376719   0.925631   3.975860   0.000000   0.000000   0.000000   0.000000   0.000000   0.000000   0.000000   0.000000   0.000000   0.000000   0.000000   0.000000   0.000000   0.000000   0.000000   0.000000   0.000000   0.000000   0.000000   0.000000   0.000000   0.000000   0.000000   0.000000   0.000000   0.000000   0.000000   0.000000   0.000000   0.000000   0.000000   0.000000   0.000000   0.000000   0.000000   0.000000   0.000000   0.000000   0.000000   0.000000   0.000000   0.000000   0.000000   0.000000   0.000000   0.000000   0.000000   0.000000   0.000000   0.000000   0.000000   0.000000   0.000000   0.000000   0.000000   0.000000   0.000000   0.000000   0.000000   0.000000
 -2.377015   0.926058   3.973998   1.556716   0.643937  -0.140243  -1.765903  -0.567374  -0.153394   0.464099  -0.323300   0.335689  -0.592846   0.075064   0.000340   0.667373  -0.899617   0.264276   1.197428  -0.062454   2.018479   0.078722   3.726842  -0.070685   0.220966  -1.142497  -2.670700   0.278151   0.691019  -0.360614   1.884048   0.718911  -1.839005   0.070860  -3.678288   0.079216   0.294409   0.952867   2.242474  -2.423141  -0.408067   0.205320   1.515505  -0.001156   0.003215  -3.274410  -0.250376   0.050035   0.770026  -0.001030  -0.000060  -2.931485  -0.427696   0.117627   3.292233  -0.000041   0.006401  -1.972832   0.236182  -0.347632   0.537987   0.001588   0.002145
 -2.377390   0.926747   3.972062   2.972797   1.314317  -0.350464  -3.333776  -1.158925  -0.302539   0.964951  -0.693064   0.715451  -1.144292   0.140199   0.006944   1.313610  -1.766477   1.209353   2.368234  -0.045347   4.576585   0.185981   7.304954  -0.125189   0.524505  -1.356205  -4.745940   0.569232   1.330396  -1.328061   3.762429   1.317589  -4.210193   0.175665  -7.438548   0.148340   0.669001   1.125585   3.922651  -4.822610  -0.792383   0.467317   2.972488  -0.002336   0.006581  -6.358273  -0.484575   0.083309   1.277314  -0.001689   0.000289  -5.660383  -0.822217   0.226278   6.836233   0.001515   0.014259  -3.802667   0.470526  -0.664990   1.014305   0.002687   0.003914
 -2.377764   0.927326   3.970227   4.270214   1.970875  -0.591820  -4.753166  -1.746649  -0.442759   1.477084  -1.074607   1.103587  -1.648387   0.199919   0.011594   1.932391  -2.539565   2.579029   3.512918   0.042296   7.493351   0.294059  10.652216  -0.162826   0.830089  -1.350516  -6.048467   0.855714   1.863746  -2.666779   5.636198   1.772677  -6.936014   0.292486 -11.213363   0.206442   1.038000   1.075919   4.912053  -7.168111  -1.160301   0.731647   4.302202  -0.003203   0.009225  -9.239082  -0.703265   0.103217   1.725533  -0.002205   0.000667  -8.130750  -1.190810   0.291225  10.423338   0.004704   0.021142  -5.506608   0.698432  -0.954274   1.456002   0.003506   0.005245
 -2.378123   0.927525   3.968575   5.471169   2.605515  -0.850761  -6.053241  -2.326377  -0.572173   1.978337  -1.461522   1.491343  -2.112673   0.255511   0.014567   2.528620  -3.223953   4.199070   4.638932   0.203117  10.655664   0.389860  13.776867  -0.186801   1.121793  -1.292840  -6.741413   1.135025   2.302624  -4.223361   7.502830   2.076807  -9.891443   0.409166 -14.997965   0.255585   1.391926   0.929485   5.359592  -9.458466  -1.514580   0.982123   5.507713  -0.003759   0.011109 -11.930144  -0.907717   0.112096   2.126463  -0.002585   0.000996 -10.363038  -1.534717   0.311812  14.032702   0.009040   0.026585  -7.095712   0.918425  -1.218074   1.857593   0.004067   0.006142
 -2.378508   0.927129   3.967152   6.586474   3.218331  -1.118599  -7.254381  -2.893766  -0.697308   2.458301  -1.847881   1.861720  -2.541083   0.306905   0.020913   3.105115  -3.838845   5.960011   5.749513   0.430145  13.990852   0.467458  16.689496  -0.199944   1.393540  -1.238363  -6.991056   1.408884   2.674629  -5.938849   9.262839   2.232879 -12.849958   0.515775 -18.788133   0.294513   1.726896   0.734442   5.341430 -11.687479  -1.855908   1.215013   6.600816  -0.004107   0.012361 -14.443884  -1.098645   0.111915   2.486107  -0.002860   0.001262 -12.376034  -1.853907   0.296585  17.663786   0.013934   0.030656  -8.577864   1.129867  -1.458733   2.222722   0.004397   0.006698
 -2.378944   0.925970   3.965981   7.622649   3.808795  -1.391824  -8.372038  -3.447574  -0.822163   2.911690  -2.232387   2.212659  -2.936674   0.354659   0.028046   3.663934  -4.400986   7.781755   6.845496   0.715918  17.444750   0.525246  19.401532  -0.204630   1.642872  -1.213990  -6.934639   1.675596   2.996969  -7.721938  10.916291   2.265777 -15.743540   0.608487 -22.581565   0.325387   2.039747   0.518217   5.010545 -13.849382  -2.184450   1.431126   7.593684  -0.004313   0.013102 -16.791738  -1.276609   0.104513   2.810200  -0.003052   0.001460 -14.186190  -2.149051   0.255951  21.317602   0.018981   0.033471  -9.960126   1.332564  -1.678246   2.555897   0.004539   0.006993
 -2.379508   0.923582   3.964044   8.031005   4.122781  -2.115375  -8.721592  -3.779323  -0.293197   3.563565  -2.584897   2.560142  -3.468045   0.395829  -0.168868   3.957029  -4.431764   9.195448   7.097370   0.901566  20.531977   0.569991  22.507346  -0.198484   1.699212  -2.150016  -5.690071   1.934200   3.086949  -9.139494  13.309368   1.670017 -18.277646   0.677479 -26.353933   0.395846   2.076379   0.456979   4.114084 -15.743220  -2.766876   2.037154  10.683613  -0.005151   0.009893 -19.401558  -1.065658   0.063660   3.116747  -0.002548   0.001614 -15.780957  -2.057501   0.808243  25.513974   0.025813   0.045648 -11.870279   1.396124  -1.910889   3.325570   0.006040   0.010032
 -2.380141   0.920308   3.961921   8.239297   4.288001  -2.911201  -8.911503  -4.003189   0.289921   4.291735  -2.821183   2.963614  -3.937304   0.433704  -0.352421   4.146557  -4.217770  10.377578   7.254825   1.252351  23.299510   0.586010  25.482802  -0.193555   1.787347  -2.800619  -4.560729   2.131547   3.013973 -10.291215  15.485020   0.917856 -20.477893   0.727326 -30.172511   0.454440   2.160795   0.214676   3.304479 -17.422236  -3.401199   2.723308  13.851940  -0.006509   0.003675 -21.913549  -0.908928   0.090972   3.434706  -0.002245   0.001235 -17.401560  -1.984404   1.447845  29.708915   0.032330   0.050471 -13.652291   1.466309  -2.121908   4.032518   0.007085   0.011413
 -2.380744   0.916285   3.959898   8.312196   4.371440  -3.697962  -9.022834  -4.144230   0.859872   5.011594  -2.962908   3.374957  -4.359635   0.469839  -0.520989   4.261015  -3.871558  11.388798   7.341759   1.685016  25.808444   0.581669  28.305826  -0.187590   1.918538  -3.179236  -3.622431   2.275395   2.869073 -11.243537  17.461109   0.100462 -22.402401   0.762802 -34.002470   0.498837   2.261184  -0.149992   2.695582 -18.925536  -4.037393   3.398281  17.064866  -0.008199  -0.002523 -24.258065  -0.772206   0.132677   3.720474  -0.001973   0.000772 -19.037137  -1.937599   2.059101  33.773508   0.038556   0.049977 -15.315337   1.538075  -2.314634   4.685841   0.007926   0.011738
 -2.381298   0.911550   3.958192   8.284213   4.428794  -4.448004  -9.112515  -4.230081   1.394912   5.686727  -3.041643   3.769442  -4.744940   0.504822  -0.678029   4.322604  -3.463444  12.264419   7.375920   2.147861  28.098662   0.563038  30.969263  -0.179667   2.071477  -3.375758  -2.837767   2.377681   2.693285 -12.049458  19.259938  -0.744321 -24.106331   0.776558 -37.601748   0.521862   2.371853  -0.654847   2.242829 -20.238418  -4.659786   4.030493  20.344555  -0.010020  -0.007313 -26.436817  -0.649369   0.179711   3.979849  -0.001738   0.000395 -20.650863  -1.907568   2.604787  37.559188   0.044064   0.046700 -16.867451   1.609795  -2.491626   5.284146   0.008619   0.011503
 -2.381812   0.906079   3.956900   8.178759   4.502147  -5.157391  -9.209242  -4.277937   1.888866   6.302447  -3.075858   4.138027  -5.102760   0.538166  -0.824360   4.351199  -3.039258  13.028300   7.373291   2.608081  30.198857   0.534753  33.471790  -0.170244   2.231649  -3.463221  -2.172646   2.458231   2.520529 -12.742154  20.908806  -1.577472 -25.629629   0.772901 -40.967600   0.527160   2.479620  -1.184353   1.887816 -21.338000  -5.258288   4.617523  23.701069  -0.011718  -0.009884 -28.458047  -0.537897   0.228599   4.216796  -0.001551   0.000169 -22.250336  -1.889357   3.078487  41.065317   0.048868   0.042636 -18.317652   1.680688  -2.654733   5.826585   0.009158   0.011033
 -2.382303   0.899811   3.956050   8.016126   4.613805  -5.823293  -9.330201  -4.294870   2.337395   6.853494  -3.074603   4.475872  -5.438713   0.569882  -0.960893   4.361012  -2.624237  13.696772   7.345990   3.048034  32.130230   0.500441  35.817027  -0.160149   2.391671  -3.488777  -1.604528   2.531341   2.370218 -13.342255  22.429353  -2.377812 -27.001453   0.755484 -44.108761   0.518398   2.579997  -1.691642   1.594422 -22.204408  -5.823498   5.163004  27.134218  -0.013044  -0.010091 -30.330988  -0.436011   0.277571   4.433864  -0.001413   0.000086 -23.846760  -1.879073   3.478907  44.308194   0.052968   0.038663 -19.672875   1.750313  -2.805311   6.317225   0.009543   0.010485
 -2.382924   0.892859   3.954994   7.820657   4.447137  -6.431464  -9.351617  -4.226915   2.762325   7.360994  -3.011827   4.765826  -5.845863   0.527668  -1.257470   4.586795  -2.178549  14.066348   6.653632   3.750546  33.969290   0.480417  38.949920  -0.150552   2.422774  -4.227049  -0.766393   2.751759   2.217276 -13.557090  24.328841  -3.001170 -28.090718   0.733073 -47.000355   0.524581   2.642566  -2.636042   1.184603 -22.939415  -6.435615   5.696881  30.531328  -0.017085  -0.019215 -32.321188  -0.168039   0.302775   4.439985  -0.001130   0.000058 -25.463053  -1.635190   3.943710  46.591586   0.052019   0.033395 -19.979729   1.690652  -2.623732   6.944022   0.008603   0.009863
